# xmcd
#
# Track frame offsets:
#	150
#	9651
#	32047
#	59924
#	82700
#	107933
#	135601
#	187040
#	202103
#	207936
#	220746
#	231983
#
# Disc length: 3599 seconds
#
# Revision: 0
# Processed by: cddbd v1.5.2PL0 Copyright (c) Steve Scherf et al.
# Submitted via: EasyCDDAExtractor 9.0.0.1
#
DISCID=b20e0d0c
DTITLE=Ozzy Osbourne - Le Transbordeur Lyon 11-04-89 Disc 1
DYEAR=1989
DGENRE=Hard Rock
TTITLE0=Carmina Burana
TTITLE1=I Don't Know
TTITLE2=Flying High Again
TTITLE3=Mr Crowley
TTITLE4=Shot In The Dark
TTITLE5=Bloodbath In Paradise
TTITLE6=Guitar Solo
TTITLE7=Sweet Leaf
TTITLE8=War Pigs
TTITLE9=War Pigs II
TTITLE10=Tattooed Dancer
TTITLE11=Drum Solo
EXTD=
EXTT0=
EXTT1=
EXTT2=
EXTT3=
EXTT4=
EXTT5=
EXTT6=
EXTT7=
EXTT8=
EXTT9=
EXTT10=
EXTT11=
PLAYORDER=
